<svg xmlns="http://www.w3.org/2000/svg" viewBox="0 0 200 200" width="200" height="200">
  <g transform="translate(8.491,117.889) scale(1.048191, -1.048191)">
    <path d="M26.280,0.000L15.412,0.000L15.412,42.334L1.440,42.334L1.440,51.413L40.252,51.413L40.252,42.334L26.280,42.334L26.280,0.000ZM83.020,19.732Q83.020,9.934 77.868,4.601Q72.715,-0.720 63.862,-0.720Q58.394,-0.720 54.108,1.654Q49.822,4.027 47.369,8.595Q44.928,13.174 44.928,19.732Q44.928,29.520 50.035,34.774Q55.154,40.027 64.075,40.027Q69.622,40.027 73.863,37.654Q78.115,35.280 80.568,30.780Q83.020,26.280 83.020,19.732ZM55.874,19.732Q55.874,13.894 57.775,10.901Q59.688,7.920 64.008,7.920Q68.260,7.920 70.162,10.901Q72.074,13.894 72.074,19.732Q72.074,25.560 70.162,28.474Q68.260,31.387 63.940,31.387Q59.688,31.387 57.775,28.474Q55.874,25.560 55.874,19.732ZM113.762,40.027Q120.388,40.027 124.483,34.875Q128.590,29.734 128.590,19.732Q128.590,9.720 124.337,4.500Q120.096,-0.720 113.470,-0.720Q109.228,-0.720 106.708,0.821Q104.188,2.374 102.602,4.320L102.028,4.320Q102.602,1.294 102.602,-1.440L102.602,-17.280L91.870,-17.280L91.870,39.307L100.588,39.307L102.096,34.200L102.602,34.200Q104.188,36.574 106.843,38.295Q109.510,40.027 113.762,40.027ZM110.308,31.466Q106.123,31.466 104.436,28.867Q102.748,26.280 102.602,20.947L102.602,19.800Q102.602,14.107 104.290,11.047Q105.988,7.987 110.443,7.987Q114.122,7.987 115.877,11.047Q117.643,14.107 117.643,19.867Q117.643,31.466 110.308,31.466ZM173.164,19.732Q173.164,9.934 168.012,4.601Q162.859,-0.720 154.006,-0.720Q148.538,-0.720 144.252,1.654Q139.966,4.027 137.513,8.595Q135.072,13.174 135.072,19.732Q135.072,29.520 140.179,34.774Q145.298,40.027 154.219,40.027Q159.766,40.027 164.007,37.654Q168.259,35.280 170.712,30.780Q173.164,26.280 173.164,19.732ZM146.018,19.732Q146.018,13.894 147.919,10.901Q149.832,7.920 154.152,7.920Q158.404,7.920 160.306,10.901Q162.218,13.894 162.218,19.732Q162.218,25.560 160.306,28.474Q158.404,31.387 154.084,31.387Q149.832,31.387 147.919,28.474Q146.018,25.560 146.018,19.732Z" fill="#0066FF"/>
  </g>
</svg>